<svg xmlns="http://www.w3.org/2000/svg" width="512" height="512" viewBox="0 0 461 461"><path d="M230 438q39-1 67-26 105-105 146-249a97 97 0 0 0-70-123 588 588 0 0 0-286 0 97 97 0 0 0-69 123q41 144 146 249 28 25 66 26z" style="fill:#0140ff;fill-opacity:1;stroke:#fff;stroke-width:16;stroke-linecap:butt;stroke-linejoin:round;stroke-miterlimit:4;stroke-dasharray:none;stroke-opacity:1"/><path d="M171 286H86q6-40 41-68 13-11 19-19 6-9 6-21 0-10-5-16-5-9-17-9-24 0-26 34H88q1-20 10-32 11-16 33-16 14 0 24 8 13 11 13 31 0 26-30 49-26 20-31 44h64zm60-147q40 0 40 75t-40 76-39-76 39-75zm0 14q-23 0-23 61t23 62 23-62-23-61zm87 50h10q13 0 18-4 9-7 9-21 0-25-23-25-19 0-23 21h-16q2-13 9-22 11-13 30-13 16 0 27 9 12 11 12 29 0 25-22 33 26 10 26 37 0 18-10 29-12 14-33 14-19 0-31-14-8-10-10-27h16q3 27 25 27 11 0 18-6 9-8 9-23 0-31-31-31h-10z" style="font-style:normal;font-variant:normal;font-weight:400;font-stretch:normal;font-size:180px;line-height:125;font-family:IPAGothic;text-align:center;text-anchor:middle;fill:#fff;fill-opacity:1;stroke:#fff;stroke-width:5.67064;stroke-linecap:butt;stroke-linejoin:miter;stroke-miterlimit:4;stroke-dasharray:none;stroke-opacity:1"/><path d="M230 445q40-1 69-27c71-71 124-160 151-257a100 100 0 0 0-72-127 607 607 0 0 0-295 0 100 100 0 0 0-72 127c27 97 80 186 151 257q29 26 68 27z" style="display:inline;fill:none;fill-opacity:1;stroke:#a0a0a0;stroke-width:2;stroke-linecap:butt;stroke-linejoin:round;stroke-miterlimit:4;stroke-dasharray:none;stroke-opacity:1"/></svg>